<svg width="315" height="55" viewBox="0 0 315 55" fill="none" xmlns="http://www.w3.org/2000/svg">
<path d="M53.3667 31.9816L62.6679 22.9099L53.3667 13.7867L47.0779 19.9204L40.8419 13.8382L53.3667 1.62241L75.1399 22.9099L53.4196 44.0944L22.3981 13.7867L13.097 22.9099L22.3981 31.9816L28.5813 25.951L34.8173 32.0331L22.3981 44.1459L0.625 22.9099L22.2396 1.77704L53.3667 31.9816Z" fill="white"/>
<path d="M122.385 28.5282C122.385 38.1668 115.938 43.115 105.897 43.115H89.5671V2.911H106.056C115.938 2.911 122.385 7.85918 122.385 17.4978V28.5282ZM113.296 17.4978C113.296 12.962 110.389 10.6941 106.056 10.6941H98.7097V35.3835H105.95C110.442 35.3835 113.296 33.064 113.296 28.5797V17.4978Z" fill="#EE3524"/>
<path d="M152.35 33.3217C151.61 40.2801 146.642 43.6305 138.98 43.6305C131.052 43.6305 125.609 39.6616 125.609 31.7754V24.5593C125.609 16.7247 130.894 12.7043 139.032 12.7043C147.065 12.7043 152.403 16.7247 152.403 24.5593V30.7445H134.17V32.3424C134.17 34.868 135.809 36.4659 138.98 36.4659C142.203 36.4659 143.313 35.0742 143.789 33.3217H152.35ZM134.17 24.7139H143.894V23.9923C143.894 21.1574 141.992 19.8688 139.085 19.8688C136.126 19.8688 134.223 21.209 134.223 23.9923V24.7139H134.17Z" fill="#EE3524"/>
<path d="M162.814 43.0635L152.456 13.2197H161.545L168.151 33.7341L172.485 20.4358H180.993L172.96 43.115H162.814V43.0635Z" fill="#EE3524"/>
<path d="M206.73 20.4358H195.262V43.115H186.754V20.4358H181.469V13.2713H186.754V11.2611C186.754 3.06563 189.924 -1.41867 202.925 0.539992V7.34375C197.112 7.03449 195.262 7.18912 195.262 10.9518V13.2713H215.238V43.115H206.73V20.4358Z" fill="white"/>
<path d="M219.043 13.2713H225.491L226.706 16.1577C228.662 13.8382 231.462 12.7043 235.003 12.7043C241.451 12.7043 245.784 16.7247 245.784 24.5593V43.0635H237.276V23.9923C237.276 21.1574 235.373 19.8688 232.467 19.8688C229.507 19.8688 227.605 21.209 227.605 23.9923V43.115H219.096V13.2713H219.043Z" fill="white"/>
<path d="M249.272 13.2713H257.781V43.115H249.272V13.2713Z" fill="white"/>
<path d="M273.846 32.6517C273.846 36.4143 275.643 36.569 281.509 36.2597V43.0635C268.509 45.0221 265.338 40.5378 265.338 32.3424V20.4358H260.634V13.2713H265.338V5.23046L273.846 2.70482V13.2713H281.509V20.4358H273.846V32.6517Z" fill="white"/>
<path d="M291.233 54.5577L295.249 43.0635H294.192L283.834 13.2197H292.977L299.636 33.7341L306.242 13.2197H314.75L300.375 54.5062H291.233V54.5577Z" fill="white"/>
</svg>
