<svg width="71" height="34" viewBox="0 0 71 34" fill="none" xmlns="http://www.w3.org/2000/svg">
<path d="M49.1645 22.1543C51.7576 24.3164 55.5241 24.3314 58.1436 22.1901V22.1901C61.5654 19.3929 61.6106 14.1802 58.2383 11.338V11.338C55.6456 9.1528 51.8599 9.12743 49.2292 11.2779L46.2635 13.7023L38.914 7.54296L43.2699 3.9821C49.4104 -1.03757 58.2646 -0.96898 64.3246 4.12192V4.12192C72.2 10.738 72.1325 22.9219 64.1524 29.4454V29.4454C58.0337 34.4473 49.2315 34.3975 43.1912 29.3267L21.525 11.1383C18.9273 8.95759 15.1333 8.94706 12.5078 11.1055V11.1055C9.10335 13.9044 9.06237 19.1105 12.4332 21.9354V21.9354C15.0273 24.1094 18.8068 24.1213 21.4238 21.9636L38.914 7.54296L46.2635 13.7023L27.3801 29.2381C21.257 34.2757 12.395 34.2201 6.33058 29.1378V29.1378C-1.52912 22.5509 -1.48711 10.3944 6.46131 3.88093V3.88093C12.5456 -1.10495 21.3042 -1.07526 27.3332 3.95166L49.1645 22.1543Z" fill="url(#paint0_radial_1202_1034)"/>
<defs>
<radialGradient id="paint0_radial_1202_1034" cx="0" cy="0" r="1" gradientUnits="userSpaceOnUse" gradientTransform="translate(35.0128 16.9558) rotate(33.0707) scale(76.9692 158.929)">
<stop offset="0.0001" stop-color="#FF0000"/>
<stop offset="0.822917" stop-color="white"/>
</radialGradient>
</defs>
</svg>
