<svg width="293" height="47" viewBox="0 0 293 47" fill="none" xmlns="http://www.w3.org/2000/svg">
<path d="M59.1516 30.1985C61.7447 32.3606 65.5113 32.3756 68.1307 30.2343V30.2343C71.5525 27.4371 71.5977 22.2244 68.2254 19.3821V19.3821C65.6327 17.197 61.847 17.1716 59.2163 19.3221L56.2506 21.7465L48.9011 15.5871L53.2571 12.0263C59.3976 7.00662 68.2518 7.07521 74.3117 12.1661V12.1661C82.1871 18.7821 82.1196 30.9661 74.1396 37.4896V37.4896C68.0208 42.4915 59.2186 42.4416 53.1783 37.3709L31.5121 19.1825C28.9144 17.0018 25.1204 16.9913 22.4949 19.1497V19.1497C19.0905 21.9486 19.0495 27.1546 22.4203 29.9796V29.9796C25.0145 32.1536 28.794 32.1655 31.4109 30.0078L48.9011 15.5871L56.2506 21.7465L37.3672 37.2823C31.2441 42.3199 22.3821 42.2643 16.3177 37.182V37.182C8.458 30.5951 8.50001 18.4386 16.4484 11.9251V11.9251C22.5327 6.93924 31.2913 6.96893 37.3204 11.9958L59.1516 30.1985Z" fill="url(#paint0_radial_1202_1032)"/>
<path d="M173.657 20.4359H160.058V43.1151H149.969V20.4359H143.702V13.2713H149.969V11.2611C149.969 3.06567 153.729 -1.41862 169.145 0.540037V7.34379C162.252 7.03453 160.058 7.18916 160.058 10.9518V13.2713H183.747V43.1151H173.657V20.4359Z" fill="#FF0404"/>
<path d="M188.259 13.2713H195.904L197.346 16.1578C199.664 13.8383 202.986 12.7043 207.185 12.7043C214.83 12.7043 219.969 16.7247 219.969 24.5594V43.0635H209.879V23.9924C209.879 21.1575 207.623 19.8689 204.177 19.8689C200.667 19.8689 198.411 21.209 198.411 23.9924V43.1151H188.322V13.2713H188.259Z" fill="#FF0404"/>
<path d="M224.105 13.2714H234.194V43.1151H224.105V13.2714Z" fill="#FF0404"/>
<path d="M253.245 32.6517C253.245 36.4144 255.376 36.569 262.332 36.2597V43.0635C246.916 45.0221 243.156 40.5378 243.156 32.3424V20.4358H237.578V13.2713H243.156V5.23047L253.245 2.70483V13.2713H262.332V20.4358H253.245V32.6517Z" fill="#FF0404"/>
<path d="M90 3H101.858V44H90V3Z" fill="white"/>
<path d="M109 14.567H116.645L118.087 17.4534C120.406 15.134 123.727 14 127.926 14C135.571 14 140.71 18.0204 140.71 25.855V44.3592H130.62V25.288C130.62 22.4532 128.364 21.1646 124.918 21.1646C121.408 21.1646 119.152 22.5047 119.152 25.288V44.4107H109.063V14.567H109Z" fill="white"/>
<path d="M292.741 33.6174C292.001 40.5758 287.033 43.9262 279.37 43.9262C271.443 43.9262 266 39.9573 266 32.0711V24.855C266 17.0204 271.285 13 279.423 13C287.456 13 292.793 17.0204 292.793 24.855V31.0403H274.561V32.6381C274.561 35.1638 276.199 36.7616 279.37 36.7616C282.594 36.7616 283.704 35.3699 284.179 33.6174H292.741ZM274.561 25.0097H284.285V24.2881C284.285 21.4532 282.383 20.1646 279.476 20.1646C276.516 20.1646 274.614 21.5047 274.614 24.2881V25.0097H274.561Z" fill="#FF0404"/>
<defs>
<radialGradient id="paint0_radial_1202_1032" cx="0" cy="0" r="1" gradientUnits="userSpaceOnUse" gradientTransform="translate(44.9999 25) rotate(33.0707) scale(76.9692 158.929)">
<stop offset="0.0001" stop-color="#FF0000"/>
<stop offset="0.822917" stop-color="white"/>
</radialGradient>
</defs>
</svg>
